Coordinates
version=1
nRows=19
nColumns=36
inDegrees=yes

Units are S.I. units (second, meters, Newtons, ...)
If the header above contains a line with 'inDegrees', this indicates whether rotational values are in degrees (yes) or radians (no).

endheader
time	pelvis_tilt	pelvis_list	pelvis_rotation	pelvis_tx	pelvis_ty	pelvis_tz	hip_flexion_r	hip_adduction_r	hip_rotation_r	knee_angle_r	knee_angle_r_beta	ankle_angle_r	subtalar_angle_r	mtp_angle_r	hip_flexion_l	hip_adduction_l	hip_rotation_l	knee_angle_l	knee_angle_l_beta	ankle_angle_l	subtalar_angle_l	mtp_angle_l	lumbar_extension	lumbar_bending	lumbar_rotation	arm_flex_r	arm_add_r	arm_rot_r	elbow_flex_r	pro_sup_r	arm_flex_l	arm_add_l	arm_rot_l	elbow_flex_l	pro_sup_l
      3.64166670	     -7.29324067	      2.80232501	      6.20647832	      0.63465876	      0.95648207	     -0.08457471	      3.44879299	     -0.91983231	      1.66638724	      0.33932507	      0.00592234	     -1.49123576	    -11.41054931	     -7.49999987	      2.46606718	     -1.19737772	     -2.46043803	      0.42521394	      0.00742138	     -1.06238077	      0.28817700	     -7.49999987	     -9.91720093	      1.97072288	      0.68537366	      8.29703362	    -11.29749799	    -16.57246213	     34.84096703	     78.24209011	     11.00987541	     -4.33164630	    -11.72180726	     25.68259151	     78.67499086
      3.64583330	     -6.81599785	      2.82340183	      6.25976963	      0.63550309	      0.95438626	     -0.08639497	      2.97769908	     -0.91282037	      1.90894832	      0.33920532	      0.00592025	     -1.59196906	    -11.99619065	     -7.49999987	      2.01197256	     -1.22137558	     -2.68283653	      0.43249566	      0.00754847	     -0.86220359	      0.74834461	     -7.49999987	    -10.79779902	      2.09250774	      0.49156885	      9.28188740	    -11.55653927	    -12.61586901	     35.58600658	     78.60044065	     11.90384429	     -4.30387700	     -7.93105240	     26.74164829	     78.40777403
      3.65000000	     -6.64977372	      2.85778699	      6.34524435	      0.63711021	      0.95137833	     -0.08710479	      2.78187807	     -0.91968428	      1.76271222	      0.34632778	      0.00604456	     -1.41620286	    -11.88500353	     -7.49999987	      1.83442378	     -1.19307319	     -2.61760170	      0.44786276	      0.00781668	     -0.69388298	      1.00970928	     -7.49999987	    -11.04238087	      2.17827398	      0.48030758	     10.03074403	    -11.32236814	    -11.01929783	     36.13427706	     78.78066180	     12.76218807	     -3.82981828	     -6.37225512	     27.38969625	     78.03698284
      3.65416670	     -6.37636091	      2.89224863	      6.37829921	      0.63593767	      0.94646828	     -0.08510878	      2.44914686	     -0.87851617	      1.50761973	      0.37219462	      0.00649602	     -1.11113295	    -11.86386035	     -7.49999987	      1.56715863	     -1.21751682	     -2.67699324	      0.46309704	      0.00808257	     -0.43477241	      1.03076891	     -7.49999987	    -11.43603632	      2.17286772	      0.61683985	     10.72588977	    -10.76847452	    -10.27358323	     37.01672225	     77.93353160	     13.66920104	     -3.25161743	     -5.82982356	     28.51193485	     77.09711272
      3.65833330	     -6.25301286	      2.99230765	      6.39129465	      0.63800863	      0.94843845	     -0.08373416	      2.26026475	     -0.87807996	      1.25194577	      0.40280225	      0.00703023	     -0.80798704	    -11.95379332	     -7.49999987	      1.38158946	     -1.22642255	     -2.70865269	      0.48129574	      0.00840020	     -0.30299484	      1.16512684	     -7.49999987	    -11.55221085	      1.99960711	      0.63090874	     11.35709004	    -10.25121877	     -9.09255844	     37.47547010	     82.97158681	     14.43384062	     -3.09804446	     -4.22949233	     29.32698820	     80.25543300
      3.66250000	     -6.10046032	      3.02520085	      6.35723374	      0.63790399	      0.94822752	     -0.08052182	      2.07036181	     -0.76632841	      1.30575010	      0.43251575	      0.00754882	     -0.46704752	    -12.05323833	     -7.49999987	      1.15358659	     -1.32232485	     -2.68205321	      0.50710604	      0.00885067	     -0.23334938	      1.14895991	     -7.49999987	    -11.77141259	      1.83150651	      0.78774679	     11.98068961	     -9.49275779	     -8.01342185	     38.00195719	     83.14611460	     15.21029831	     -2.80180021	     -3.44420876	     30.39925185	     80.42082778
      3.66666670	     -6.00706126	      3.03605087	      6.45561853	      0.63751423	      0.94596590	     -0.07850677	      1.95805171	     -0.60614342	      1.29858110	      0.45391617	      0.00792233	      0.06396967	    -11.99185082	     -7.49999987	      1.04278050	     -1.46710183	     -2.56223341	      0.53344150	      0.00931031	     -0.16145387	      0.90214913	     -7.49999987	    -11.89419493	      1.63605398	      0.86867700	     12.64792440	     -8.60387382	     -6.92649309	     38.37622051	     82.16798764	     16.07683329	     -2.53758502	     -2.63156977	     31.33777475	     79.56737715
      3.67083330	     -5.84926716	      3.02734551	      6.56919323	      0.63972159	      0.94765298	     -0.08154800	      1.72780836	     -0.52576073	      1.21932464	      0.48546831	      0.00847302	      0.34513750	    -12.09672153	     -7.49999987	      0.82820300	     -1.58659142	     -2.51902783	      0.53194386	      0.00928417	     -0.02861149	      0.88644481	     -7.49999987	    -12.01943481	      1.62729056	      0.88058091	     13.32621439	     -7.99727963	     -5.62174041	     38.39959709	     80.76972803	     16.82637486	     -2.07527685	     -1.39745243	     32.09050210	     78.35722536
      3.67500000	     -5.90603602	      3.00770226	      6.64165488	      0.64206721	      0.94781976	     -0.08487815	      1.69802061	     -0.55618029	      1.30467101	      0.50433467	      0.00880230	      0.41025613	    -12.17451885	     -7.49999987	      0.82233547	     -1.59300765	     -2.56063851	      0.52023741	      0.00907986	      0.10019380	      0.87247936	     -7.49999987	    -11.78411953	      1.71977931	      0.88374911	     13.71345346	     -7.35027871	     -5.30913057	     38.51589381	     80.82685816	     17.42355771	     -1.26738226	     -1.08734110	     32.44430059	     78.41628224
      3.67916670	     -5.75819578	      3.06886503	      6.73355654	      0.64291006	      0.94984633	     -0.08474208	      1.46675569	     -0.64369444	      1.69379357	      0.52109920	      0.00909490	      0.28813618	    -12.84770618	     -7.49999987	      0.56193892	     -1.51398649	     -2.57745229	      0.50578350	      0.00882759	      0.25892349	      1.06544324	     -7.49999987	    -11.88494505	      1.74710913	      0.80961657	     14.57985137	     -7.31691383	     -2.31660240	     37.93651634	     80.94405319	     18.15872769	     -1.12167948	      2.33115481	     33.15159924	     78.61127810
      3.68333330	     -5.56451876	      3.06151909	      6.89279797	      0.64538269	      0.94597730	     -0.08568789	      1.09455252	     -0.65751867	      1.89726269	      0.53630446	      0.00936028	      0.36089291	    -12.94317576	     -7.49999987	      0.21854748	     -1.46463647	     -2.41403219	      0.48593069	      0.00848109	      0.51934193	      1.10462686	     -7.49999987	    -11.87567686	      1.87935735	      0.74930421	     15.11144202	     -6.82836853	     -0.96324031	     37.91000692	     80.44373442	     18.83889472	     -0.52318311	      4.08686333	     33.71387538	     78.16946396
      3.68750000	     -5.38730725	      3.05339769	      7.05743784	      0.64508362	      0.94183059	     -0.08588856	      0.78657970	     -0.68200981	      2.00377425	      0.56923125	      0.00993496	      0.55490349	    -13.17099202	     -7.49999987	     -0.10770007	     -1.44004692	     -2.20027022	      0.46700565	      0.00815079	      0.81001118	      1.07948284	     -7.49999987	    -11.85896076	      2.01946378	      0.77822015	     15.65575021	     -6.30151818	     -0.31211762	     38.05730470	     79.58428964	     19.56020349	      0.29376087	      4.96800319	     34.34457377	     77.41456242
      3.69166670	     -5.18317971	      3.05543297	      7.23904055	      0.64757827	      0.94453256	     -0.09078216	      0.39657756	     -0.77871148	      1.84418161	      0.59770319	      0.01043189	      0.77899175	    -13.06362159	     -7.49999987	     -0.47221445	     -1.36749420	     -2.03035845	      0.43983977	      0.00767665	      1.03695105	      1.13323565	     -7.49999987	    -11.75117065	      2.27126363	      0.66644457	     16.06029983	     -5.93550538	      0.65384998	     37.94790019	     78.90163386	     20.14559733	      1.20410839	      6.20576689	     34.69280298	     76.83799666
      3.69583330	     -5.11481238	      3.05036089	      7.32328190	      0.64683859	      0.94199669	     -0.08821180	      0.22409940	     -0.83016367	      2.01310218	      0.62865340	      0.01097207	      0.79859126	    -13.63921493	     -7.49999987	     -0.64959419	     -1.33764615	     -1.80334590	      0.41436887	      0.00723210	      1.42297955	      1.04897869	     -7.49999987	    -11.55918057	      2.40547031	      0.68861987	     16.45247043	     -5.48856689	      1.80859464	     38.17962585	     78.30273352	     20.81994701	      1.82534866	      7.53478481	     35.30772697	     76.30393619
      3.70000000	     -5.14853297	      3.08172283	      7.38245926	      0.64684667	      0.94222858	     -0.09041541	      0.16136074	     -0.91769173	      2.40645370	      0.66194791	      0.01155317	      0.66088880	    -14.55065211	     -7.49999987	     -0.68693935	     -1.24615968	     -1.36765613	      0.39412710	      0.00687882	      1.66721246	      0.46420826	     -7.49999987	    -11.23656065	      2.50649131	      0.73643022	     16.99816263	     -5.35308587	      3.96190663	     38.06982640	     78.77062088	     21.50663275	      2.18128837	      9.96720868	     35.74738491	     76.66261007
      3.70416670	     -5.18306364	      3.10580732	      7.51170933	      0.64980901	      0.93715308	     -0.09346600	      0.04735513	     -1.02689028	      1.98841516	      0.71277059	      0.01244019	      1.02958903	    -14.42594564	     -7.49999987	     -0.80695134	     -1.15155128	     -1.13774565	      0.39031404	      0.00681227	      2.12253868	      0.38572909	     -7.49999987	    -10.70763402	      2.66211928	      0.69401261	     17.26431489	     -4.80992320	      4.32428145	     38.22523038	     78.58714916	     21.90165200	      3.09513861	     10.32497408	     36.08313425	     76.48278152
      3.70833330	     -5.03991299	      3.14855283	      7.42009450	      0.64868958	      0.94065070	     -0.08981379	     -0.17091369	     -1.04341867	      2.37504219	      0.72596678	      0.01267051	      1.03042772	    -15.10515750	     -7.49999987	     -1.02787161	     -1.10046109	     -1.03799347	      0.36764891	      0.00641668	      2.30915165	     -0.08117495	     -7.49999987	    -10.67221625	      2.73702736	      0.94520223	     17.68953175	     -4.36337519	      5.51876215	     38.51206993	     78.12177094	     22.63012109	      3.85837647	     11.39034087	     36.67561805	     75.95680480
      3.71250000	     -5.15424825	      3.15506369	      7.51898932	      0.64498225	      0.93701463	     -0.09060966	     -0.05606754	     -1.06504690	      2.74862043	      0.74497645	      0.01300229	      1.22469985	    -15.51598325	     -7.49999987	     -0.88633560	     -1.02833519	     -0.88056217	      0.36826912	      0.00642751	      2.70022800	     -0.23974082	     -7.49999987	    -10.45098997	      2.79366716	      0.93296062	     18.41127963	     -3.84808186	      6.93959223	     38.75341674	     77.27144572	     23.67111403	      4.60763586	     12.83135078	     37.18228517	     75.07246916
      3.71666670	     -5.36571977	      3.14330428	      7.64771913	      0.64379245	      0.93726126	     -0.08805947	      0.24430523	     -1.04478328	      3.06537261	      0.76699848	      0.01338665	      1.07122828	    -16.36679260	     -7.49999987	     -0.57513371	     -1.02344367	     -0.14968816	      0.36112285	      0.00630278	      2.43533405	     -1.35400111	     -7.49999987	    -10.28296020	      2.81126942	      1.03083425	     19.31643422	     -3.46726177	      9.17206314	     38.95527336	     77.33214172	     24.74888683	      4.84926997	     15.18500832	     37.91677701	     74.81991717
